<svg xmlns="http://www.w3.org/2000/svg" width="27.183" height="22.134" viewBox="0 0 27.183 22.134">
  <g id="Group_86" data-name="Group 86" transform="translate(-197 -298.355)" opacity="0.75">
    <g id="photo-camera-interface-symbol-for-button" transform="translate(197 298.355)">
      <path id="Path_29" data-name="Path 29" d="M17.976,16.261a4.384,4.384,0,1,1-4.384-4.384A4.389,4.389,0,0,1,17.976,16.261Zm9.208-6.225V22.488a3.006,3.006,0,0,1-3.006,3.006H3.006A3.006,3.006,0,0,1,0,22.488V10.036A3.006,3.006,0,0,1,3.006,7.03H6.7V5.99a2.63,2.63,0,0,1,2.63-2.63H17.85a2.63,2.63,0,0,1,2.63,2.63V7.029h3.7A3.007,3.007,0,0,1,27.183,10.036ZM20.23,16.261A6.638,6.638,0,1,0,13.592,22.9,6.646,6.646,0,0,0,20.23,16.261Z" transform="translate(0 -3.36)" fill="#e29821"/>
    </g>
  </g>
</svg>
