<svg xmlns="http://www.w3.org/2000/svg" width="74" height="74" viewBox="0 0 74 74">
  <g id="Group_4" data-name="Group 4" transform="translate(-170 -674)">
    <circle id="Ellipse_1" data-name="Ellipse 1" cx="37" cy="37" r="37" transform="translate(170 674)" fill="#e29821"/>
    <path id="Path_2" data-name="Path 2" d="M84.382,129.493h1.494l.287-14.359a1.183,1.183,0,0,0-.652-1.047,2.943,2.943,0,0,1-1.8-2.892c-.081-1.991,1.574-4.911,2.89-4.886s2.756,2.638,2.868,5a2.874,2.874,0,0,1-1.928,2.846,1.283,1.283,0,0,0-.523.983l.3,14.394h1.49s.234-10.638,6.96-13.613L92.623,96.026H80.529l-3.156,19.911C84,118.632,84.382,129.493,84.382,129.493Z" transform="translate(120.032 597.672)" fill="#fff"/>
  </g>
</svg>
